<svg width="936" height="512" viewBox="0 0 936 512" fill="none" xmlns="http://www.w3.org/2000/svg">
<rect x="566.675" y="164" width="36" height="52" rx="4" fill="url(#paint0_linear_52_189)"/>
<rect x="624.675" y="65" width="36" height="151" rx="4" fill="url(#paint1_linear_52_189)"/>
<rect x="682.675" y="34" width="36" height="182" rx="4" fill="url(#paint2_linear_52_189)"/>
<rect x="740.675" y="98" width="36" height="118" rx="4" fill="url(#paint3_linear_52_189)"/>
<rect x="798.675" y="130" width="36" height="86" rx="4" fill="url(#paint4_linear_52_189)"/>
<path d="M687.675 199H734.675H750.675H798.675H806.675H814.675H819.175H857.629C857.991 199 858.351 199.049 858.7 199.146L862.675 200.25L864.597 200.891C864.815 200.963 865.026 201.055 865.229 201.164L867.889 202.596C868.079 202.699 868.261 202.816 868.432 202.948L871.143 205.033C871.33 205.177 871.505 205.338 871.664 205.513L873.7 207.753C873.849 207.917 873.985 208.094 874.105 208.281L875.968 211.178C876.105 211.392 876.222 211.619 876.317 211.855L877.675 215.25L878.35 217.726C878.4 217.908 878.436 218.094 878.46 218.282L878.675 220V223L877.925 230.25L873.175 268.25C873.175 269.169 873.694 270.01 874.516 270.421L877.175 271.75L882.925 274.75L887.175 277.5L891.425 280.5L894.925 283.25L897.925 286L899.925 287.75L903.425 291.25L905.175 293.25L908.425 297.25L911.675 301.75L914.675 306.5L917.925 312.5L920.925 319.5L923.425 327L925.175 334.5L926.175 341.25L926.675 348.5V353.5L926.175 361.25L924.925 368.75L923.425 375L920.925 382.5L918.425 388.25L916.425 392.25L913.925 396.75L910.925 401.25L908.925 404L905.675 408L903.925 410L901.675 412.5L899.175 415L897.175 416.75L893.675 419.75L889.675 422.75L884.675 426L879.425 429L873.175 432L867.175 434.25L861.425 436L854.925 437.5L847.675 438.5L840.925 439H836.175L828.675 438.5L822.175 437.5L815.675 436L809.425 434L804.175 432L796.925 428.5L791.425 425.25L787.425 422.5L784.175 420L780.925 417.25L776.925 413.75L775.175 411.75L773.175 409.75L768.675 404.25L765.925 400.5L762.925 395.75L759.925 390.25L757.675 385.5L755.425 379.5L754.194 375.563C754.181 375.521 754.175 375.478 754.175 375.434C754.175 375.194 753.98 375 753.741 375H567.508C564.999 375 563.11 377.284 563.579 379.748L563.675 380.25L565.175 389.5C565.319 390.366 566.068 391 566.945 391H569.925L576.425 391.75L582.925 393.25L587.675 395L592.675 397.25L597.675 400.25L600.675 402.5L603.425 404.75L606.425 407.5L609.675 411L612.675 415L615.425 419.5L617.425 423.25L619.675 429L621.175 434.25L621.478 435.618C621.885 437.448 623.508 438.75 625.383 438.75H652.912C654.338 438.75 655.533 437.669 655.675 436.25L656.675 432L658.675 426L661.925 419.25L664.675 415L667.675 411L671.425 407L673.425 405L676.925 402.25L680.425 399.75L684.675 397.25L689.425 395L696.175 392.75L702.425 391.5L707.175 391H713.925L720.425 391.75L726.675 393.25L731.675 395L736.675 397.25L741.675 400.25L745.675 403.25L749.175 406.25L752.175 409.25L754.425 412L757.425 416L760.175 420.75L762.675 426L764.675 432L765.925 437.5L766.425 441L766.675 445V448.25L766.175 454.75L764.925 461L763.425 465.75L761.425 470.75L758.925 475.5L756.425 479.25L753.925 482.5L751.675 485L749.925 487L746.925 489.75L741.925 493.5L738.175 495.75L734.175 497.75L729.425 499.75L724.425 501.25L719.425 502.25L715.925 502.75L709.175 503L702.925 502.5L696.675 501.25L692.425 500L686.925 497.75L682.175 495.25L677.675 492.25L673.675 489L668.175 483.5L665.425 480L662.425 475.5L659.425 469.75L657.175 463.75L655.727 457.959C655.692 457.82 655.668 457.678 655.655 457.535C655.525 456.099 654.321 455 652.879 455H624.188C622.9 455 621.817 455.969 621.675 457.25L620.425 462.75L618.175 469L616.175 473.25L613.425 477.75L610.925 481.25L607.925 484.75L606.052 486.857C605.971 486.948 605.855 487 605.733 487C605.549 487 605.385 487.118 605.327 487.292L605.243 487.545C605.198 487.679 605.118 487.799 605.012 487.892L603.175 489.5L598.675 493L594.175 495.75L590.175 497.75L585.425 499.75L580.425 501.25L575.675 502.25L571.925 502.75L565.425 503L558.925 502.5L552.675 501.25L548.425 500L542.925 497.75L538.175 495.25L535.425 493.5L531.425 490.5L528.675 488L526.675 486.25L523.675 483L521.175 479.75L518.425 475.5L516.425 472L514.175 466.75L512.425 461.25L511.175 455.25L510.675 450.75V442.75L511.425 437L512.925 430.75L514.925 425.25L517.425 420L519.425 416.75L522.425 412.5L525.425 409L529.675 404.75L533.175 402L536.675 399.5L542.175 396.5L546.925 394.5L547.474 394.317C548.49 393.978 549.175 393.028 549.175 391.958C549.175 391.82 549.163 391.681 549.14 391.545L541.425 345.75L533.925 301L527.425 262.25L518.425 208.5L511.425 166.75L508.938 152.077C508.929 152.026 508.925 151.974 508.925 151.922C508.925 151.413 508.512 151 508.002 151H446.425L442.909 150.561C442.587 150.52 442.272 150.441 441.969 150.325L439.631 149.426C439.328 149.309 439.04 149.156 438.774 148.969L436.675 147.5L435.258 146.286C435.036 146.096 434.836 145.882 434.661 145.649L432.936 143.348C432.762 143.117 432.614 142.867 432.494 142.604L431.59 140.615C431.48 140.372 431.394 140.119 431.334 139.859L430.777 137.444C430.709 137.149 430.675 136.847 430.675 136.544V117.242C430.675 116.915 430.715 116.59 430.794 116.272L431.318 114.176C431.389 113.893 431.49 113.618 431.621 113.357L433.174 110.251C433.34 109.919 433.552 109.611 433.803 109.337L435.879 107.073C436.075 106.858 436.295 106.666 436.533 106.499L438.372 105.212C438.573 105.071 438.787 104.949 439.011 104.847L441.425 103.75L442.582 103.364C442.81 103.288 443.044 103.233 443.282 103.199L444.393 103.04C444.581 103.013 444.77 103 444.959 103H504.369C504.572 103 504.776 103.016 504.977 103.047L507.472 103.43C507.773 103.477 508.067 103.557 508.35 103.67L510.15 104.39C510.333 104.463 510.51 104.55 510.68 104.649L512.978 105.989C513.274 106.162 513.548 106.373 513.79 106.616L515.864 108.69C516.07 108.896 516.254 109.124 516.41 109.37L517.683 111.371C517.844 111.623 517.975 111.892 518.076 112.173L519.059 114.926C519.136 115.142 519.194 115.363 519.233 115.589L521.425 128.25L527.675 165.5L532.925 197C533.067 198.143 534.039 199 535.19 199H558.675H606.675H622.675H670.675H686.675H687.675Z" fill="url(#paint5_linear_52_189)"/>
<path d="M834.175 280H844.425L851.175 280.75L857.175 282L863.175 283.75L869.925 286.5L876.175 289.75L881.425 293.25L884.675 295.75L888.175 298.75L894.175 304.75L896.925 308.25L900.175 312.75L903.425 318.25L906.425 324.75L908.175 329.5L909.675 335L910.925 341.25L911.425 345L911.675 348.5V355.5L911.175 361.5L909.925 368L908.175 374.25L905.925 380.25L902.925 386.5L899.925 391.5L896.675 396L893.925 399.25L891.675 401.75L887.675 405.75L884.925 408L881.675 410.5L877.925 413L872.675 416L867.925 418.25L861.925 420.5L856.675 422L851.675 423L846.425 423.75L842.425 424H836.425L830.425 423.5L824.425 422.5L817.925 420.75L811.175 418.25L805.425 415.5L800.425 412.5L795.925 409.25L793.175 407L790.675 404.75L785.175 399.25L782.425 395.75L779.675 392L776.675 387L774.675 383.25L771.925 376.75L770.175 371.25L768.925 366L767.925 359.5L767.675 356.5V347L768.175 342.25L769.175 336.75L770.425 331.75L772.425 325.75L774.675 320.75L777.425 315.5L780.175 311.25L783.675 306.5L786.425 303.5L788.175 301.5L791.175 298.5L793.925 296.25L798.425 292.75L802.925 290L806.925 287.75L812.175 285.25L817.675 283.25L822.925 281.75L828.175 280.75L834.175 280Z" fill="url(#paint6_linear_52_189)"/>
<path d="M847.675 216H855.425L858.675 216.25L860.675 217.25L862.425 219.25L863.425 221.25V225.75L862.675 231.5L862.425 231.75L809.675 232H541.425L539.675 231.75L538.425 225.5L536.925 216.25L847.675 216Z" fill="#2563EB"/>
<path d="M708.425 408H714.675L720.175 408.75L725.425 410.25L729.925 412.25L734.175 414.75L737.675 417.5L740.925 420.5L743.175 423.25L745.175 426L747.175 429.5L748.925 433.25L750.425 437.75L751.425 443L751.675 445.5V450.75L751.175 455L749.925 460L747.925 465L745.675 469.25L742.925 473L740.675 475.5L737.425 478.75L733.675 481.5L729.675 483.75L726.425 485.25L721.925 486.75L716.925 487.75L714.175 488H709.175L704.925 487.5L699.675 486.25L694.675 484.25L690.425 482L686.925 479.5L684.425 477.25L682.425 475.5L680.175 472.75L677.675 469.25L675.175 464.75L673.175 459.5L672.175 455.25L671.675 450.75V444.75L672.425 439.75L673.925 434.5L675.675 430.25L677.925 426.25L680.925 422.25L684.425 418.5L687.425 416L691.175 413.5L695.925 411L701.925 409L705.675 408.25L708.425 408Z" fill="#A6D8FF"/>
<path d="M563.425 408H569.675L575.175 408.75L580.425 410.25L584.925 412.25L589.175 414.75L592.675 417.5L595.175 419.75V420.25H595.675L597.925 423L600.175 426L602.175 429.5L603.925 433.25L605.425 437.75L606.425 443L606.675 445.5V450.75L606.175 455L604.925 460L602.925 465L600.675 469.25L597.925 473L595.675 475.5L592.425 478.75L588.675 481.5L584.675 483.75L581.425 485.25L576.925 486.75L571.925 487.75L569.175 488H564.175L559.925 487.5L554.675 486.25L549.675 484.25L545.425 482L541.925 479.5L539.425 477.25L537.425 475.5L535.175 472.75L532.675 469.25L530.175 464.75L528.175 459.5L527.175 455.25L526.675 450.75V444.75L527.425 439.75L528.925 434.5L530.675 430.25L532.925 426.25L535.925 422.25L539.425 418.5L542.425 416L546.175 413.5L550.925 411L556.925 409L560.675 408.25L563.425 408Z" fill="#A6D8FF"/>
<path d="M831.675 296H847.675L847.925 313.25L852.925 316L856.425 318.75L859.175 322L861.425 325.75L862.675 329L863.675 334V343.75L863.175 344H847.925L847.675 343.75L847.425 335.5L846.675 332.5L845.175 330.5L843.675 329.25L841.175 328.25H831.925V337.25L832.925 340L834.925 342.25L836.925 343.25L838.925 343.75L843.175 344.25L847.425 345.25L850.675 346.5L853.425 348.25L855.925 350.25L857.925 352.25L860.175 355.5L862.175 359.5L863.175 363L863.675 366.5V391.75L863.425 392L847.925 392.25L847.675 407.75L847.425 408H831.925L831.675 407.75L831.425 390.25L829.175 389.5L825.675 387.5L822.175 384.5L819.425 381L817.425 377.25L816.175 373.25L815.675 370.25V360H831.675L831.925 369.5L832.925 372L833.675 373V373.5H834.175V374L835.175 374.5L837.425 375.5L838.425 375.75H847.175L847.425 375.5V367.75L846.925 365.25L845.925 363.25L844.175 361.5L842.175 360.5L834.925 359.5L831.175 358.5L827.175 356.5L823.925 354.25L821.175 351.5L818.925 348.25L817.175 344.75L816.175 341.5L815.675 337.75V312L831.675 311.75V296Z" fill="#27AE22"/>
<path d="M708.756 420H714.588L719.255 420.875L723.921 422.625L727.712 424.958L730.92 427.583L733.837 430.791L736.461 434.874L737.92 438.082L739.086 441.873L739.669 445.373V450.622L738.503 456.163L736.753 460.538L734.712 464.038L731.504 467.829L728.004 470.745L724.213 473.078L719.838 474.828L715.755 475.703L713.422 475.995H709.631L704.381 475.12L699.715 473.37L695.632 471.037L691.84 467.829L689.216 464.913L686.883 461.121L684.841 456.455L683.675 450.914V445.664L684.549 440.415L686.299 435.749L688.341 432.249L691.549 428.458L694.757 425.541L698.84 422.916L702.34 421.458L706.714 420.292L708.756 420Z" fill="#2563EB"/>
<path d="M563.753 419.997H569.586L574.252 420.872L578.918 422.622L582.71 424.955L585.918 427.58L588.834 430.788L591.459 434.871L592.917 438.079L594.083 441.87L594.667 445.37V450.62L593.5 456.161L591.75 460.535L589.709 464.035L586.501 467.826L583.001 470.743L579.21 473.076L574.835 474.826L570.752 475.701L568.419 475.992H564.628L559.378 475.117L554.712 473.367L550.629 471.034L546.838 467.826L544.213 464.91L541.88 461.119L539.838 456.452L538.672 450.911V445.662L539.547 440.412L541.297 435.746L543.338 432.246L546.546 428.455L549.754 425.538L553.837 422.914L557.337 421.456L561.711 420.289L563.753 419.997Z" fill="#2563EB"/>
<path d="M672.425 248H709.675L735.175 248.25L734.425 260L732.425 292L732.175 295.25L731.925 295.75L729.175 296H675.675L675.175 295.75L672.175 249.25L672.425 248Z" fill="#A6D8FF"/>
<path d="M676.175 312H728.425L731.175 312.25L729.425 340.25L728.175 359.25L727.925 359.75L722.425 360H680.425L679.425 359.75L678.925 355.75L676.925 324.5L676.175 312Z" fill="#A6D8FF"/>
<path d="M542.425 248H592.425L593.175 252L595.675 272.25L597.925 290L598.675 295.75L597.425 296H550.925L550.175 295.5L547.175 278.25L542.425 249.5V248Z" fill="#A6D8FF"/>
<path d="M553.175 312H600.425L601.175 316L603.925 338.25L605.925 354L606.675 359.75L605.425 360H561.925L560.925 359.5L558.175 343.75L552.925 312.25L553.175 312Z" fill="#A6D8FF"/>
<path d="M608.925 248H648.925L655.925 248.25L656.175 249.25L658.425 284.25L659.175 293.75V295.75L657.425 296H615.175L614.675 295.75L611.175 268.25L608.925 250V248Z" fill="#A6D8FF"/>
<path d="M616.925 312H656.425L659.925 312.25L660.175 312.75L662.175 344.25L662.925 354.75L663.175 357.5V359.75L661.175 360H623.175L622.675 358.75L621.675 352.25L617.175 316.5L616.925 312Z" fill="#A6D8FF"/>
<path d="M751.425 248H798.425L798.675 248.5L796.675 263.75L795.175 276L793.175 277.5L788.675 280.5L784.675 283.5L782.175 285.75L779.425 288L774.175 293.25L772.175 295.75L771.425 296H748.425L748.175 295.75L748.425 291L750.425 259.5L751.175 248.25L751.425 248Z" fill="#A6D8FF"/>
<path d="M814.925 248H860.425L860.675 248.5L859.175 259.75L858.425 265.5L858.175 265.75L855.175 265.5L850.175 264.75L844.925 264.25H833.925L827.175 265L820.425 266.25L812.675 268.25L811.925 268L812.425 265.75L814.175 251.5L814.675 248.25L814.925 248Z" fill="#A6D8FF"/>
<path d="M747.425 312H761.175L760.675 313.25L757.925 319.75L755.675 326L753.925 332.75L752.675 339.25L751.925 346.5V359.75L751.175 360H744.925L744.175 359.75L744.425 354.75L745.925 330L746.925 314L747.175 312.25L747.425 312Z" fill="#A6D8FF"/>
<path d="M709.675 440H713.675L715.925 441L718.175 443L719.425 445.5L719.675 446.5V449.5L718.925 451.75L717.425 453.75L715.425 455.25L713.175 456H709.925L707.425 455L705.175 453L703.925 450.5L703.675 449.75V446.25L704.675 443.75L706.675 441.5L709.675 440Z" fill="white"/>
<path d="M564.675 440H568.675L570.925 441L573.175 443L574.425 445.5L574.675 446.5V449.5L573.925 451.75L572.425 453.75L570.425 455.25L568.175 456H564.925L562.425 455L560.175 453L558.925 450.5L558.675 449.75V446.25L559.675 443.75L561.675 441.5L564.675 440Z" fill="white"/>
<path d="M858.675 216.5L859.925 216.75L861.925 218.5L862.425 219.25L862.175 220L861.925 219.25H861.175L859.675 217.25L858.675 216.75V216.5Z" fill="#2563EB"/>
<path d="M862.425 220.25L863.175 220.5L863.425 221.25V223.75L863.175 225.5H862.925L862.675 222L862.425 220.25Z" fill="#2563EB"/>
<path d="M862.675 229L862.925 229.5L862.675 231.5L861.425 231.75V231.25H861.925L862.175 229.75L862.675 229Z" fill="#2563EB"/>
<rect x="440.675" y="140" width="25" height="67" rx="4" transform="rotate(-90 440.675 140)" fill="white"/>
<rect width="7.1194" height="10.2836" rx="0.791045" transform="matrix(1 0 0 -1 293.675 369.284)" fill="url(#paint7_linear_52_189)"/>
<rect width="7.1194" height="29.8619" rx="0.791045" transform="matrix(1 0 0 -1 305.145 388.862)" fill="url(#paint8_linear_52_189)"/>
<rect width="7.1194" height="35.9925" rx="0.791045" transform="matrix(1 0 0 -1 316.615 394.993)" fill="url(#paint9_linear_52_189)"/>
<rect width="7.1194" height="23.3358" rx="0.791045" transform="matrix(1 0 0 -1 328.085 382.336)" fill="url(#paint10_linear_52_189)"/>
<rect width="7.1194" height="17.0075" rx="0.791045" transform="matrix(1 0 0 -1 339.555 376.008)" fill="url(#paint11_linear_52_189)"/>
<path d="M2.38883 339.752C0.955871 338.408 0.903908 336.193 2.13288 334.66L8.43584 326.799C9.94601 324.916 12.7584 324.806 14.6109 326.354C16.8215 328.201 19.1785 329.764 21.6821 331.044C25.5282 332.946 29.3955 333.897 33.2839 333.897C36.7074 333.897 39.5814 333.052 41.906 331.361C44.2306 329.67 45.3929 327.494 45.3929 324.831C45.3929 323.479 45.1393 322.274 44.6321 321.217C44.1672 320.118 43.3219 319.041 42.0962 317.984C40.9127 316.927 39.201 315.955 36.9609 315.068C34.7632 314.18 32.037 313.398 28.7826 312.722C20.245 310.905 13.6305 307.735 8.9391 303.212C4.24766 298.648 1.90194 293.005 1.90194 286.285C1.90194 278.635 4.73371 272.295 10.3972 267.266C16.0608 262.236 23.2881 259.721 32.0793 259.721C37.8697 259.721 43.3219 260.715 48.436 262.701C52.4203 264.236 56.0261 266.238 59.2534 268.707C60.8742 269.946 61.0917 272.254 59.8881 273.902L53.9135 282.081C52.5342 283.97 49.8468 284.258 47.9581 282.879C42.6731 279.021 37.676 277.092 32.9669 277.092C30.1774 277.092 27.8317 277.811 25.9297 279.248C24.0278 280.685 23.0768 282.481 23.0768 284.637C23.0768 287.257 24.218 289.476 26.5003 291.294C28.7826 293.111 32.7133 294.654 38.2923 295.922C57.1426 300.275 66.5677 309.573 66.5677 323.817C66.5677 331.889 63.5458 338.525 57.5019 343.724C51.4579 348.922 43.4064 351.522 33.3473 351.522C26.7116 351.522 20.4986 350.275 14.7083 347.781C10.0456 345.758 5.9391 343.082 2.38883 339.752Z" fill="#062569"/>
<path d="M97.389 350C95.1799 350 93.389 348.209 93.389 346V283.375C93.389 281.166 91.5981 279.375 89.389 279.375H75.6435C73.4344 279.375 71.6435 277.584 71.6435 275.375V265.243C71.6435 263.034 73.4344 261.243 75.6435 261.243H132.183C134.392 261.243 136.183 263.034 136.183 265.243V275.375C136.183 277.584 134.392 279.375 132.183 279.375H118.437C116.228 279.375 114.437 281.166 114.437 283.375V346C114.437 348.209 112.646 350 110.437 350H97.389Z" fill="#062569"/>
<path d="M163.957 263.931C164.515 262.322 166.032 261.243 167.735 261.243H185.121C186.825 261.243 188.341 262.322 188.9 263.931L216.934 344.688C217.836 347.287 215.906 350 213.155 350H199.786C198.035 350 196.488 348.862 195.967 347.19L191.949 334.298C191.428 332.626 189.881 331.488 188.13 331.488H164.727C162.976 331.488 161.429 332.626 160.908 334.298L156.89 347.19C156.369 348.862 154.822 350 153.071 350H139.701C136.95 350 135.02 347.287 135.922 344.688L163.957 263.931ZM180.827 315.004C183.522 315.004 185.446 312.394 184.648 309.82L180.249 295.63C179.085 291.876 173.771 291.876 172.608 295.63L168.209 309.82C167.411 312.394 169.335 315.004 172.029 315.004H180.827Z" fill="#062569"/>
<path d="M241.892 350C239.682 350 237.892 348.209 237.892 346V283.375C237.892 281.166 236.101 279.375 233.892 279.375H220.146C217.937 279.375 216.146 277.584 216.146 275.375V265.243C216.146 263.034 217.937 261.243 220.146 261.243H276.685C278.894 261.243 280.685 263.034 280.685 265.243V275.375C280.685 277.584 278.894 279.375 276.685 279.375H262.94C260.73 279.375 258.94 281.166 258.94 283.375V346C258.94 348.209 257.149 350 254.94 350H241.892Z" fill="#062569"/>
<path d="M297.123 350C294.914 350 293.123 348.209 293.123 346V265.243C293.123 263.034 294.914 261.243 297.123 261.243H310.171C312.38 261.243 314.171 263.034 314.171 265.243V327.868C314.171 330.077 315.962 331.868 318.171 331.868H344.279C346.488 331.868 348.279 333.659 348.279 335.868V346C348.279 348.209 346.488 350 344.279 350H297.123Z" fill="#062569"/>
<path d="M362.035 261.243C363.542 261.243 364.921 262.089 365.602 263.433L378.168 288.195C379.65 291.115 383.821 291.115 385.302 288.195L397.868 263.433C398.55 262.089 399.929 261.243 401.435 261.243H414.911C417.968 261.243 419.895 264.533 418.4 267.199L392.185 313.96C391.85 314.558 391.675 315.231 391.675 315.916V370C391.675 372.209 389.884 374 387.675 374H375.211C373.002 374 371.211 372.209 371.211 370V315.904C371.211 315.231 371.041 314.568 370.717 313.978L344.989 267.17C343.524 264.504 345.452 261.243 348.494 261.243H362.035Z" fill="#062569"/>
<defs>
<linearGradient id="paint0_linear_52_189" x1="584.675" y1="164" x2="584.675" y2="216" gradientUnits="userSpaceOnUse">
<stop stop-color="#A6D8FF"/>
<stop offset="1" stop-color="#71C1FF"/>
</linearGradient>
<linearGradient id="paint1_linear_52_189" x1="642.675" y1="65" x2="642.675" y2="216" gradientUnits="userSpaceOnUse">
<stop stop-color="#598DFF"/>
<stop offset="1" stop-color="#3877FF"/>
</linearGradient>
<linearGradient id="paint2_linear_52_189" x1="700.675" y1="34" x2="700.675" y2="216" gradientUnits="userSpaceOnUse">
<stop stop-color="#2563EB"/>
<stop offset="1" stop-color="#2154C4"/>
</linearGradient>
<linearGradient id="paint3_linear_52_189" x1="758.675" y1="98" x2="758.675" y2="216" gradientUnits="userSpaceOnUse">
<stop stop-color="#44D63E"/>
<stop offset="1" stop-color="#199914"/>
</linearGradient>
<linearGradient id="paint4_linear_52_189" x1="816.675" y1="130" x2="816.675" y2="216" gradientUnits="userSpaceOnUse">
<stop stop-color="#91FF81"/>
<stop offset="1" stop-color="#40C52C"/>
</linearGradient>
<linearGradient id="paint5_linear_52_189" x1="689.175" y1="-5.5" x2="678.675" y2="503" gradientUnits="userSpaceOnUse">
<stop stop-color="#0B2E7A"/>
<stop offset="1" stop-color="#001B56"/>
</linearGradient>
<linearGradient id="paint6_linear_52_189" x1="839.675" y1="280" x2="839.675" y2="424" gradientUnits="userSpaceOnUse">
<stop stop-color="#91FF81"/>
<stop offset="1" stop-color="#67FF4F"/>
</linearGradient>
<linearGradient id="paint7_linear_52_189" x1="3.5597" y1="0" x2="3.5597" y2="10.2836" gradientUnits="userSpaceOnUse">
<stop stop-color="#A6D8FF"/>
<stop offset="1" stop-color="#71C1FF"/>
</linearGradient>
<linearGradient id="paint8_linear_52_189" x1="3.5597" y1="0" x2="3.5597" y2="29.8619" gradientUnits="userSpaceOnUse">
<stop stop-color="#598DFF"/>
<stop offset="1" stop-color="#3877FF"/>
</linearGradient>
<linearGradient id="paint9_linear_52_189" x1="3.5597" y1="0" x2="3.5597" y2="35.9925" gradientUnits="userSpaceOnUse">
<stop stop-color="#2563EB"/>
<stop offset="1" stop-color="#2154C4"/>
</linearGradient>
<linearGradient id="paint10_linear_52_189" x1="3.5597" y1="0" x2="3.5597" y2="23.3358" gradientUnits="userSpaceOnUse">
<stop stop-color="#44D63E"/>
<stop offset="1" stop-color="#199914"/>
</linearGradient>
<linearGradient id="paint11_linear_52_189" x1="3.5597" y1="0" x2="3.5597" y2="17.0075" gradientUnits="userSpaceOnUse">
<stop stop-color="#91FF81"/>
<stop offset="1" stop-color="#40C52C"/>
</linearGradient>
</defs>
</svg>
